PathFileType	4	(X/Y/Z)	5_coords_data.trc
DataRate	CameraRate	NumFrames	NumMarkers	Units	OrigDataRate	OrigDataStartFrame	OrigNumFrames
30.0	30.0	7	21	m	30.0	30	68
Frame#	Time	THUMB_TIP	THUMB_IP	THUMB_MCP	THUMB_CMC	INDEX_TIP	INDEX_DIP	INDEX_PIP	INDEX_MCP	MIDDLE_TIP	MIDDLE_DIP	MIDDLE_PIP	MIDDLE_MCP	RING_TIP	RING_DIP	RING_PIP	RING_MCP	PINKY_TIP	PINKY_DIP	PINKY_PIP	PINKY_MCP	WRIST
X1	Y1	Z1	X2	Y2	Z2	X3	Y3	Z3	X4	Y4	Z4	X5	Y5	Z5	X6	Y6	Z6	X7	Y7	Z7	X8	Y8	Z8	X9	Y9	Z9	X10	Y10	Z10	X11	Y11	Z11	X12	Y12	Z12	X13	Y13	Z13	X14	Y14	Z14	X15	Y15	Z15	X16	Y16	Z16	X17	Y17	Z17	X18	Y18	Z18	X19	Y19	Z19	X20	Y20	Z20	X21	Y21	Z21
28	0.9666666666666625	0.5423662115872835	-0.01586829837322945	-0.11862640026201682	0.5204883025762913	-0.018778313093151477	-0.12502084407180855	0.49072613718300095	-0.014549779642531124	-0.11694910225486344	0.4715977667005622	-0.027337346311895994	-0.07873295931286689	0.5696914181861813	0.04142143239503726	-0.15874098829042826	0.5549769114289315	0.03867210437810764	-0.14854665229703612	0.5362799110211912	0.03679391507650909	-0.1318462207546981	0.5055990764024316	0.028179759256624748	-0.10359522430135004	0.5067495843530823	-0.031116763722739527	-0.10552714991567169	0.5181061992765349	-0.018073853023099162	-0.11090393129132955	0.5330071449186968	0.005567261518211519	-0.11917853534312359	0.5159528034985804	0.028736095392868255	-0.0849951695548537	0.5218767617855643	-0.03172757706120133	-0.1089705545286524	0.5351833756863009	-0.01958854330335702	-0.10821036644492268	0.5508129164992074	-0.00046108369525488246	-0.10504213003989965	0.5291058384464574	0.01489080398042919	-0.07458161229635174	0.5989120039487308	0.022451451424580382	-0.08253251915550824	0.5835287443576543	0.015847640105894123	-0.07896250509100616	0.5642841190208736	0.008363912592155964	-0.07516115833662351	0.5320503166447658	-0.007068633053532114	-0.07029269140423278	0.462283081001861	-0.023011742144276925	-0.051989820119430985
29	0.9999999999999956	0.5424891767010038	-0.015986081091331372	-0.11851423640560699	0.5206169848957117	-0.018930835605487473	-0.1249123335042659	0.49083953983622663	-0.014699197471851	-0.11689878220441707	0.4716507240595731	-0.027440625035262123	-0.07869753389057271	0.5696573540751011	0.04110762096926235	-0.15894878777037702	0.5549504359929978	0.03838424853865041	-0.148736549860375	0.5362764010456734	0.03654280982273861	-0.13200635693734933	0.5056198883880796	0.028070197694793242	-0.10368623742128474	0.5068764459422903	-0.0312508626034832	-0.10544851971561817	0.5182020587049895	-0.018204013277918096	-0.1108808505436682	0.533065578234236	0.005430438762352829	-0.11924135375578693	0.5160086278096068	0.02862566781712572	-0.08507719545635889	0.5219679517866191	-0.03186487661194237	-0.10883557463339144	0.5352560181856844	-0.01970359642012065	-0.10810718224598215	0.5508673792291292	-0.0005505745284575259	-0.10500441931776922	0.5291000738095996	0.014875419831608117	-0.0746244267770173	0.5989664700490037	0.022326064586118965	-0.08251439127648558	0.5835715084309987	0.015756006679259138	-0.07893256270986448	0.5643144801140707	0.00830725532048715	-0.07512533503132685	0.5320694904807578	-0.007098242384090403	-0.0702453007054436	0.4622830810018609	-0.023011742144276925	-0.051989820119430985
30	1.0333333333333288	0.5425754940262995	-0.016056717527118125	-0.11841294644052586	0.5207161299369218	-0.01906247630070601	-0.12482649583247951	0.49092186932103377	-0.014851174714602844	-0.11686490219154183	0.47169515287508224	-0.02754005584340713	-0.0786652206430517	0.5695657465563121	0.04093433239785915	-0.1591599443794282	0.5548578296367195	0.03821928396399332	-0.1489469285717382	0.5361978197564458	0.036342674274794984	-0.13220499916254252	0.5055690297102141	0.02797339736791915	-0.10382422189411833	0.5069712042981791	-0.03140139655952057	-0.10539244851384358	0.5183065678901565	-0.018392439364088742	-0.11089486297706747	0.5330554800709029	0.005284187718481714	-0.11933858665075109	0.5159650918650934	0.028561704376565134	-0.08524718347916865	0.52205637232976	-0.0319765698724771	-0.10873523673020447	0.5353093659594204	-0.01977465816977597	-0.10804857039808272	0.5508879444119827	-0.0005845111659044111	-0.10501111581123523	0.5290543399885714	0.01490434431737675	-0.07471078730311465	0.5989663791034257	0.022364439906267908	-0.0825384298575691	0.5835707422303674	0.01579415779310167	-0.07895991644745864	0.5643191403544943	0.008330846639234113	-0.07515375948361258	0.5320649810597513	-0.0070338918806764905	-0.07020628847266974	0.4622830810018608	-0.023011742144276925	-0.051989820119430985
31	1.0666666666666622	0.5427215357859289	-0.016037816435030883	-0.11828581897878529	0.5208916968150136	-0.019178962479938444	-0.12473495318644981	0.4910726190560625	-0.015049296614886853	-0.11682366622106574	0.47173168038158775	-0.02761208087152134	-0.0786399714952869	0.5693727353152065	0.041043692230913864	-0.15934189203850502	0.5546566308974816	0.03823709286316057	-0.14916548448202682	0.5359975118385889	0.036300154237030036	-0.13242943423996936	0.505418754191532	0.027925443184105725	-0.10399635685565162	0.5070989506801044	-0.03143498419456836	-0.10527863528308815	0.5183945926444442	-0.01842900750360954	-0.11086907738793822	0.5330028516113282	0.005297062319343349	-0.11941787442101942	0.5157942667821216	0.028626466960520958	-0.08542153037839895	0.5222005119999662	-0.031999812849215714	-0.10862119279097454	0.5353799819280197	-0.01971636540931354	-0.10797428367317213	0.5508747464255375	-0.0004457693062926982	-0.1050185472166012	0.5289256521855736	0.015068053655868607	-0.0748145840140031	0.598822286153753	0.022930618740250597	-0.08227206071601101	0.583446010555077	0.016267201250920738	-0.07878364903209933	0.5642322385812976	0.008651266783346934	-0.07509034052545749	0.5320165811112842	-0.006810391353863521	-0.0701942203857131	0.4622830810018608	-0.023011742144276925	-0.051989820119430985
32	1.0999999999999952	0.5428380455610703	-0.015840279851454975	-0.11809601111685808	0.5210526773443854	-0.019168501261668913	-0.12460144529975892	0.49119736669191416	-0.01514943513213396	-0.11677025552483569	0.4717688549510314	-0.027669066670899967	-0.07861685780369015	0.5692302243157699	0.04140592421512124	-0.1593321865376151	0.5544889959099207	0.03846679092533889	-0.14922982638805196	0.5357987595882632	0.03644246034272536	-0.13253890116106426	0.5052414169173434	0.02795178491664385	-0.10411719583395701	0.5072466003578788	-0.031382206074185515	-0.10513330231043039	0.5184794939093454	-0.018351894595165952	-0.11079308015246231	0.5329436521233382	0.0054348169113030975	-0.11941804582593607	0.5155734098202764	0.028789733679838947	-0.08552157895890561	0.5223887099299946	-0.03185744449359662	-0.10844679373757254	0.5354942579273055	-0.01949342487963468	-0.10783390657361283	0.5508730390982427	-0.0001234829047429553	-0.10492213450393476	0.5287327376360386	0.015380779480072215	-0.07485311834002406	0.5986427310930866	0.023770014185983235	-0.0815905883838195	0.583282868756292	0.01697644387851094	-0.07828573869402322	0.5641026700258296	0.009172077786604449	-0.07481819409251156	0.5319621107480708	-0.006509478499870713	-0.07013239717555242	0.4622830810018608	-0.023011742144276925	-0.051989820119430985
33	1.1333333333333284	0.5429152882729763	-0.015549142409634675	-0.11788745764361658	0.5211811890451343	-0.01905932149722822	-0.12446830664107411	0.4912750815368897	-0.01520450991461908	-0.11674916411305333	0.471810716703402	-0.027680816608828485	-0.07859984861590552	0.5691107762332298	0.04181900687646112	-0.15918301395436388	0.5543362851771932	0.038829779844528955	-0.14914414271369858	0.5355939320651291	0.03676803973505305	-0.13251635691571342	0.5050324256759811	0.028086877966985613	-0.10415674035302475	0.5073556651491233	-0.031245374439413	-0.10494932065323148	0.518531099727998	-0.018190362269928984	-0.11066564108056187	0.5328025865903072	0.005703468208802298	-0.11931544326284332	0.5152765605851743	0.029092540084935448	-0.08552287528938984	0.5225933930142491	-0.031559318258565616	-0.1082712223709994	0.5356135624055571	-0.01910554032911682	-0.1076559140697205	0.5508742791799265	0.0003571846438733539	-0.1047416664552869	0.5285191991881929	0.015784021805979598	-0.07479197651136515	0.5985398926702282	0.02441281753802549	-0.08096852497797952	0.5831728465913563	0.01756880462134336	-0.07780413214425652	0.5639954745348219	0.009686333068075204	-0.07450154797164737	0.5319054782796743	-0.006159960573415391	-0.07002823050333895	0.4622830810018608	-0.023011742144276925	-0.051989820119430985
34	1.1666666666666616	0.5428196282258467	-0.015324482886311275	-0.11755579207599154	0.5211669736280682	-0.01896757242190461	-0.12433004092770569	0.49120791300288014	-0.015207412390938368	-0.11677121277793043	0.47179310634956095	-0.027701584419408842	-0.07860249590223206	0.568808087472293	0.041908839375603524	-0.1591895286827443	0.5540318919964697	0.039052225531970075	-0.14911461902515316	0.5352899012059871	0.0371039799923385	-0.13247274552705302	0.504736694652818	0.028369610388405242	-0.10412052425708407	0.5074141852058084	-0.0311002499300429	-0.1047565539003888	0.5184608526892778	-0.017909699331036588	-0.11041168541121285	0.5325113058299448	0.006090599233137484	-0.11912833530509018	0.5149252420945466	0.029526253510903433	-0.08539929156134385	0.5227703217746585	-0.031180667097005843	-0.10804708590289358	0.535697432573041	-0.01863206820496688	-0.10739710724704446	0.5508570020454117	0.0009056174661121741	-0.10445665302524682	0.5282959565641644	0.016259794454363763	-0.07462429961813966	0.5985661174105404	0.024476062743758575	-0.08111776816661298	0.5831611332559579	0.017773706385269983	-0.07783678013845935	0.5639441964498446	0.010037357694387516	-0.07442060278315005	0.5318551553971831	-0.005789326318450416	-0.06987165032369363	0.4622830810018609	-0.023011742144276925	-0.051989820119430985
